<svg xmlns="http://www.w3.org/2000/svg" viewBox="0 0 32 40" enable-background="new 0 0 32 32"><path d="M31.4 14.8c-.9-3.5-4.3-6.6-7.8-4.4-1.5-2.5-3.8-4.6-6.9-4.8-4.4-.4-6.7 1.8-8.4 5.5-2.6-.2-5.1.7-6.6 3.3-2 3.4-2 10.1.7 13.2.1.1.3.2.4.2 8.8.8 17.6 1 26.5.4.1 0 .3-.1.4-.2 2.1-3.8 2.8-9.1 1.7-13.2zM29 27.1c-8.7.5-17.3.4-25.9-.4C.8 24 .9 18.2 2.3 15.3c2-4 6.7-3.9 10.2-1.9.6.3 1.1-.5.5-.9-1.1-.7-2.4-1.1-3.7-1.4.4-1 .8-2 1.6-2.8 1.4-1.6 3.8-2 5.8-1.8 3.5.3 5.8 3.3 7.1 6.3.3.6 1.1.1.9-.5-.2-.4-.4-.8-.6-1.1 4.2-2.8 6.6 3.5 6.7 6.8.1 3-.4 6.4-1.8 9.1zM12.8 23.1c-2.5.3-5.6-.1-5.4-3.2.1-3 2.5-4.2 5.2-3.1.6.2.9-.7.3-1-3.1-1.2-6 .2-6.4 3.6-.4 3.9 3 5.1 6.4 4.7.6-.1.6-1.1-.1-1zM17.4 15.2c-.3 0-.4.3-.3.6-1.8.9-2.9 2.8-2.4 4.9.5 2.5 2.9 3.5 5.3 3.2 2.4-.3 3.3-2.7 2.8-4.8-.8-2.9-2.5-4.3-5.4-3.9zm1.8 7.7c-1.7 0-3.2-.6-3.6-2.5-.4-1.8.7-3.4 2.4-4 .2-.1.3-.2.3-.3 1.8 0 2.9 1.1 3.4 3 .5 2-.2 3.8-2.5 3.8zM26.7 25c-.8-.1-1.6-.4-2.3-.7.5-.3 1.2-.4 1.7-.9s.7-1.3.5-2.1c-.4-1.3-2.1-1.6-2.9-.5-.4.5.5 1 .9.5.5-.7 1.2.2 1.1.8-.1.6-.6.8-1.1 1-.5.2-1 .4-1.4.8-.2.2-.2.6.1.8 1 .6 2.1 1 3.2 1.2.6.2.9-.7.2-.9z"/><text y="47" font-size="5" font-weight="bold" font-family="'Helvetica Neue', Helvetica, Arial-Unicode, Arial, Sans-serif">Created by Alfonso López-Sanz</text><text y="52" font-size="5" font-weight="bold" font-family="'Helvetica Neue', Helvetica, Arial-Unicode, Arial, Sans-serif">from the Noun Project</text></svg>