<svg xmlns="http://www.w3.org/2000/svg" width="682.667" height="682.667" version="1.0" viewBox="0 0 512 512"><path d="M235 59.6c-5.9.8-17.2 3.4-24 5.6-22.6 7.3-44.2 24.9-59.9 48.8-4.4 6.7-13.4 22.9-16.1 29l-2 4.5h-11.8c-6.4 0-13.7.4-16.2.7-28.9 4.2-52.5 17.6-69.4 39.7C31 193.8 21 210.7 21 212.5c0 .5-.7 2.2-1.5 3.8-5.9 11.3-12.7 41.3-14.2 62.1-1.1 16.5-.4 48.2 1.2 52.9.2.6.6 3 .9 5.2 2.4 22 13.6 51.6 25.7 68.2 6.4 8.7 8.5 10 18.9 10.7 4.7.4 10.3.9 12.5 1.1 3.7.3 10.3.9 26 2 3.3.2 9.2.7 13 1 11.5.9 18.5 1.4 29 2 5.5.3 12.9.7 16.5 1 3.6.2 13.3.7 21.5 1.1 8.3.3 17.5.8 20.5.9 52.2 2.6 163.6 2.6 219.5 0 44.4-2.1 58-3.1 61.5-4.5 2.9-1.2 6.7-7.6 12.8-21.5 13.6-31.1 22.3-66.5 24.9-101.5 1.4-19.2.9-40.7-1.3-60-1-8.8-5.4-28.8-8.3-37.6-6-18.4-15.1-33.9-27.8-47.4-25.8-27.4-57.2-34.4-87.5-19.5-3.9 2-7.2 3.4-7.4 3.3-.1-.2-2.5-3.7-5.2-7.8-16.7-25.5-39.5-46.3-63.2-57.7-7.3-3.5-20.6-7.8-26.6-8.7-2.2-.4-5.1-.9-6.4-1.2-3.3-.7-36.5-1.3-41-.8zm36.5 14.9c22.6 3.5 43.2 13.1 58.8 27.4 2 1.9 5 4.6 6.5 6 11.7 10.8 27.4 33.3 37.8 54.2 3.7 7.4 7.4 14.2 8.2 15.1 2.7 3.2 9 1.9 11.2-2.3 2.7-4.9 1.7-8.5-5-20-1.7-2.8-2.8-5.5-2.4-6 1-1.7 13.9-7.7 19.8-9.3 7.9-2 19.6-1.5 26.5 1.2 28.5 11.1 51.6 52.4 59 105.2 1.1 7.7 1.1 38.9 0 51-1.4 15.7-1.9 20.5-2.4 22-.2.8-.7 3.7-1 6.3-2 17.5-10.8 48.2-19.3 67.2-4.8 10.8-5.1 11.1-12 11.5-3.1.1-7.7.4-10.2.5-4 .2-23.8 1.1-45.5 2-53.9 2.3-152.9 2.3-208.5 0a2017.5 2017.5 0 01-45-2c-3-.3-9.8-.8-15-1-5.2-.3-12.4-.7-16-1-3.6-.2-10.1-.7-14.5-1-13.9-.9-21.9-1.6-25.5-2-1.9-.2-7.4-.7-12.1-1-4.7-.4-9.5-.8-10.5-1-1.1-.2-2.7-.4-3.7-.4-2.7-.1-13.1-17.1-17.6-28.6-4.7-11.9-8.5-27.1-10.5-41.5-1.5-10.6-1.6-49.1-.2-59 5.3-37.1 14.7-60 31.9-77.5 12.6-12.7 24.1-19.5 41.4-24.2 8.9-2.5 11.4-2.7 27.3-2.8 13.3 0 19.7.4 26.5 1.9 13.3 2.7 28.4 8 41.9 14.6 10.1 4.9 12.3 5.7 14.8 4.9 6.4-1.8 7.9-9.1 2.9-13.7-6.5-6.1-36-18.1-54.4-22.2-6.7-1.5-6.6-.3-.1-15.2 18.2-41.6 51.2-61.3 100.9-60.2 6.6.1 13.8.5 16 .9z"/><path d="M281.1 212.9c-5.9.8-8.4 3-7.9 7 .3 2.1-1 3.4-8.7 8.5-20.2 13.8-32 35.9-31 58.7.2 4.2.5 8.5.8 9.5.3 1.1.8 3.6 1.2 5.7.9 6.5 6.4 18.3 11.6 25 8.3 10.9 21.8 19.2 37.4 23.3 7.3 1.9 30.7 2.6 39.1 1.2 26.8-4.6 45.1-31 43.1-62.2-2-30-19.8-59.9-41.9-70.4-4.5-2.2-10.4-4.5-13.1-5.1-6.1-1.5-23.6-2.2-30.6-1.2zm28.8 17.2c16.3 5.3 28.4 18.7 35.1 38.9 9.1 27.2 3.9 51.3-13.4 61.4-11.1 6.5-31.1 7.8-47.6 3-16.4-4.7-27.2-14.9-32.5-30.7-9.1-27.2 2.9-54.1 30-67.3 5.3-2.6 10.1-5.4 10.7-6.3.9-1.5 2-1.6 7.6-.9 3.6.4 8.2 1.3 10.1 1.9zM154 218.4c-21.4 5.6-37.3 20.2-45 41.5-8.3 22.6-7 47.1 3.3 64.2 12.8 21.4 42.1 33.5 78.2 32.4 17.9-.6 19.6-1.1 21.8-5.6 1.7-3.6 1.2-7.2-1.4-9.5-2.1-1.9-2.8-1.9-19.9-.9-31 1.8-55-6.3-65.7-22-9.9-14.6-9-44.1 2-62.7 3.2-5.4 10.9-13.1 16.2-16.2 14.3-8.4 32.4-9.2 53.6-2.4 4.1 1.3 7.6 1.8 9.2 1.4 3.1-.7 5.8-5.3 5.2-8.6-.9-4.8-3.2-6.6-11.7-9.3-11.1-3.6-12.5-3.8-25.8-4.2-9.6-.3-12.9 0-20 1.9zM391.8 293.5c-5.4 2-8.8 4.5-11.8 8.7-3.2 4.4-3 6.9.8 9.8 3.9 3.1 8.5 2.6 13.1-1.5 4.6-4.2 7.8-4.4 11.9-1 6.6 5.5 7 16.2.9 22.5-2.6 2.7-12 8-14.2 8-.3 0-4.1 1.7-8.2 3.7-13.3 6.5-18 13-13.8 19 2.7 3.8 21.4 12.9 35.8 17.3 7 2.1 19.1 5 21.2 5 2.4 0 5.5-3.5 5.9-6.7.6-4.6-3-7.9-9.7-8.8-5.6-.7-30.3-8.7-31.9-10.3-.6-.6 1.8-2.1 6.9-4.2 9.9-4.1 15.3-7.2 19.2-11.1 11.9-11.9 11.5-36.1-.7-45.7-7.1-5.7-17.5-7.6-25.4-4.7z"/></svg>